<svg xmlns="http://www.w3.org/2000/svg" viewBox="0 0 80.67 99.83"><title>bird</title><g id="Layer_2" data-name="Layer 2"><g id="Layer_1-2" data-name="Layer 1"><path d="M80.65,87l-6-52.84A34.34,34.34,0,0,0,6,34.16L0,87A3,3,0,0,0,3.2,90.33c.06,0,6.18-.41,11.69-.41a41.29,41.29,0,0,1,6.75.37c4.68.84,13.83,6.77,17,9a3,3,0,0,0,3.47,0c3-2.16,11.91-8,16.5-8.83A45.43,45.43,0,0,1,66.52,90c5.35,0,10.91.33,11,.33a3,3,0,0,0,2.35-.93A3,3,0,0,0,80.65,87ZM66.52,84a51.8,51.8,0,0,0-9.09.56c-5.38,1-13.49,6.19-17.1,8.63-3.7-2.49-12.11-7.82-17.63-8.81a48,48,0,0,0-7.81-.46c-3,0-6.19.11-8.51.22L12,34.67c0-.11,0-.22,0-.34a28.34,28.34,0,0,1,56.67,0,1.88,1.88,0,0,0,0,.34l5.6,49.5C72.17,84.08,69.34,84,66.52,84Z"/><circle cx="22.33" cy="32.66" r="5.38"/><circle cx="58.33" cy="32.66" r="5.38"/><path d="M40.33,75.08,53.72,40.41H26.94Zm0-16.65-4.64-12H45Z"/></g></g></svg>