<svg xmlns="http://www.w3.org/2000/svg" viewBox="0 0 104.19 107.58"><defs><style>.cls-1{fill:#ffb74d;}</style></defs><title>bird-left</title><g id="Layer_2" data-name="Layer 2"><g id="Layer_1-2" data-name="Layer 1"><path class="cls-1" d="M47.63,70.83c2-.89,3.4-12.67,2.5-18.2s.54-5.89-.89-11.42A102.39,102.39,0,0,1,46.39,24.8c-.18-3.57-2.68-11.78,0-13.21s6.24-.17,6.24,1.79,2.14,18.2,2.86,18.73,1.42,6.78,1.24,9.46S58,55.66,59.41,58.16s3.21,9.1,7.14,5.53,10.7-11.42,13-12.31,8.57-6.07,8.57-6.07,4.28-6.06,6.6-6.06,4.28-.54,4.1,1.07-7,7.31-7,7.31-6.6,7.85-8,10S74.22,66.72,71.54,69a26.19,26.19,0,0,0-6.42,9.82c-1.25,3.39-3.39,6.42-8.74,6.06s-9.82-7.85-10.89-8.2-16.23-3.57-19.44-6.25-17-8.21-18.74-9.1S7,57.45,7,57.45s12.13,1.6,13.91,2.67a104.73,104.73,0,0,0,11.6,5.35c3.39,1.25,8.56,4.46,9.46,4.46S45.67,71.72,47.63,70.83Z"/><path class="cls-1" d="M45.41,8.38A35.47,35.47,0,0,0,47.35,0c1.7,3.88,5.18,8.22,3.57,7.76A6.86,6.86,0,0,0,45.41,8.38Z"/><path class="cls-1" d="M97.5,35.41l5.09,3.13,1.6-8.48S99.38,34.88,97.5,35.41Z"/><path class="cls-1" d="M4.46,56.2,0,54.42s1.43,5.35,2,5.35S4.1,59.23,4.46,56.2Z"/><path class="cls-1" d="M58,94.2a18,18,0,0,0,5.53-1.38c2.15-1.14,1.43,14.76,1.43,14.76S58.34,98,58,94.2Z"/></g></g></svg>