<svg xmlns="http://www.w3.org/2000/svg" viewBox="0 0 104.19 107.58"><defs><style>.cls-1{fill:#ffb74d;}</style></defs><title>bird-right</title><g id="Layer_2" data-name="Layer 2"><g id="Layer_1-2" data-name="Layer 1"><path class="cls-1" d="M56.56,70.83c-2-.89-3.39-12.67-2.5-18.2s-.54-5.88.89-11.42A102.56,102.56,0,0,0,57.81,24.8c.17-3.57,2.67-11.78,0-13.2s-6.25-.18-6.25,1.78-2.14,18.2-2.85,18.74-1.43,6.77-1.25,9.45-1.25,14.1-2.68,16.59-3.21,9.1-7.13,5.53-10.71-11.41-13-12.31-8.56-6.06-8.56-6.06-4.28-6.07-6.6-6.07-4.29-.53-4.11,1.07,7,7.32,7,7.32,6.6,7.85,8,10S30,66.73,32.65,69.05a26.16,26.16,0,0,1,6.42,9.81c1.25,3.39,3.39,6.42,8.74,6.07s9.82-7.85,10.89-8.21,16.23-3.57,19.44-6.25,17-8.2,18.74-9.1.35-3.92.35-3.92-12.13,1.6-13.91,2.68a106.59,106.59,0,0,1-11.6,5.35c-3.39,1.25-8.56,4.46-9.46,4.46S58.52,71.72,56.56,70.83Z"/><path class="cls-1" d="M58.79,8.39A34.93,34.93,0,0,1,56.85,0c-1.71,3.88-5.18,8.22-3.58,7.76A6.86,6.86,0,0,1,58.79,8.39Z"/><path class="cls-1" d="M6.69,35.42,1.6,38.54,0,30.06S4.82,34.88,6.69,35.42Z"/><path class="cls-1" d="M99.73,56.2l4.46-1.78s-1.42,5.35-2,5.35S100.09,59.23,99.73,56.2Z"/><path class="cls-1" d="M46.21,94.2a18,18,0,0,1-5.53-1.38c-2.14-1.14-1.43,14.76-1.43,14.76S45.85,98,46.21,94.2Z"/></g></g></svg>