<svg xmlns="http://www.w3.org/2000/svg" viewBox="0 0 89.49 88.58"><defs><style>.cls-1{fill:#ba68c8;}</style></defs><title>cat-right-paw</title><g id="Layer_2" data-name="Layer 2"><g id="Layer_1-2" data-name="Layer 1"><path class="cls-1" d="M87.09,58.92c1.09-3.69,5-13.64-.41-24.55S77.81,21.28,74.81,24.14s-6.81,11.6-7.5,18S66.36,56.05,73,59.6,86,62.6,87.09,58.92Z"/><path class="cls-1" d="M66,33.69s5.32-11.87,1-20.32S57.9,1.78,55,2.46,48.36,9,48.22,12.28s-2.59,12-.82,17.32,3.28,8,8.87,8.86S65.4,35.6,66,33.69Z"/><path class="cls-1" d="M43.58,17.6s1.51-13.09-.4-15.82-8.73-1.91-11-.27-5.46,2.86-7.5,7.09S18.49,19.37,22,26.46s7.5,10.77,10.64,10.37,7.9-3.69,9.13-9.28S43.58,17.6,43.58,17.6Z"/><path class="cls-1" d="M21,50.87c1.77-4.36,1.36-9.54-.27-17s-4.5-13.77-8.19-13.5S1.45,28.37.77,32.46-2,49.23,5.67,54.14,19.17,55.23,21,50.87Z"/><path class="cls-1" d="M77.68,79.37c.82-2.73,1.09-10.91-5.46-13.64s-9.68-2.59-11.32-5.31S54,45.42,46.45,44.73,31.18,51,28.31,55.51,19.86,60.28,17,61.23,8.27,72,10.31,77.46s9.27,11.46,16.77,9.68S45,83.05,50.27,85.64,67.31,90,71.13,87,76.86,82.1,77.68,79.37Z"/></g></g></svg>