<svg xmlns="http://www.w3.org/2000/svg" viewBox="0 0 89.5 88.58"><defs><style>.cls-1{fill:#ba68c8;}</style></defs><title>cat-left-paw</title><g id="Layer_2" data-name="Layer 2"><g id="Layer_1-2" data-name="Layer 1"><path class="cls-1" d="M2.41,58.92c-1.09-3.69-5.05-13.64.41-24.55s8.86-13.09,11.86-10.23,6.82,11.6,7.5,18,.95,13.91-5.73,17.46S3.5,62.6,2.41,58.92Z"/><path class="cls-1" d="M23.54,33.69s-5.32-11.86-.95-20.32,9-11.59,11.86-10.91S41.14,9,41.27,12.28s2.59,12,.82,17.32-3.27,8-8.87,8.86S24.09,35.6,23.54,33.69Z"/><path class="cls-1" d="M45.91,17.6s-1.5-13.09.41-15.82,8.73-1.91,11-.27,5.46,2.86,7.5,7.09S71,19.37,67.46,26.46,60,37.24,56.82,36.83s-7.91-3.69-9.14-9.28S45.91,17.6,45.91,17.6Z"/><path class="cls-1" d="M68.54,50.87c-1.77-4.36-1.36-9.54.28-17s4.5-13.77,8.18-13.5,11,8.05,11.73,12.14,2.73,16.78-4.91,21.68S70.32,55.24,68.54,50.87Z"/><path class="cls-1" d="M11.82,79.37c-.82-2.72-1.1-10.91,5.45-13.63s9.68-2.6,11.32-5.32,7-15,14.45-15.69S58.32,51,61.18,55.51s8.46,4.77,11.32,5.72S81.23,72,79.18,77.46s-9.27,11.46-16.77,9.69-17.87-4.1-23.18-1.5S22.18,90,18.36,87,12.63,82.1,11.82,79.37Z"/></g></g></svg>