<svg xmlns="http://www.w3.org/2000/svg" viewBox="0 0 101.66 95.33"><title>cat</title><g id="Layer_2" data-name="Layer 2"><g id="Layer_1-2" data-name="Layer 1"><path d="M65.41,60.9a3,3,0,0,0-3,3A4.27,4.27,0,0,1,54,65.07a3,3,0,0,0-1.12-5.78H48.74a3,3,0,0,0-1.11,5.78,4.28,4.28,0,0,1-8.39-1.17,3,3,0,0,0-6,0,10.29,10.29,0,0,0,7.51,9.89v.29a10.08,10.08,0,1,0,20.16,0v-.29a10.29,10.29,0,0,0,7.5-9.89A3,3,0,0,0,65.41,60.9ZM50.83,78.17a4.09,4.09,0,0,1-4.08-4.09v-.42a10.29,10.29,0,0,0,4.08-2.53,10.22,10.22,0,0,0,4.08,2.53v.42A4.09,4.09,0,0,1,50.83,78.17Z"/><circle cx="27.39" cy="46.29" r="5.75"/><circle cx="74.27" cy="46.29" r="5.75"/><path d="M101.65,57.56l-2-54.67A3,3,0,0,0,98.09.36a3,3,0,0,0-3,.07L70.65,15.13H30.44L6.57.45A3,3,0,0,0,2,2.89L0,57.56v.11C0,81.25,19,95.33,50.83,95.33s50.83-14.08,50.83-37.66A.37.37,0,0,0,101.65,57.56ZM50.83,89.33C37.36,89.33,6,86.25,6,57.72L7.81,8.25,28,20.69a3,3,0,0,0,1.57.44h41.9A3,3,0,0,0,73,20.7L93.84,8.19l1.82,49.53C95.62,86.25,64.3,89.33,50.83,89.33Z"/></g></g></svg>