<svg xmlns="http://www.w3.org/2000/svg" viewBox="0 0 77.92 82.43"><defs><style>.cls-1{fill:#4dd0e1;}</style></defs><title>dog-left-paw</title><g id="Layer_2" data-name="Layer 2"><g id="Layer_1-2" data-name="Layer 1"><path class="cls-1" d="M.29,40.25c-.89-9,.32-14.87,2.91-19.72a7.81,7.81,0,0,0,2.59,4.85s11.64,7,13.33,11.23S22.24,49,16,51.08C7.57,53.83,1.18,49.22.29,40.25Z"/><path class="cls-1" d="M20.42,30.8c-3-4.69-4.93-6.55-1.7-13.66S25.19,3.07,27,0c.49,4,.65,8.73,4.21,9.05s5.65,7.6,5.33,13.26-1.13,11.64-5.17,12S23.41,35.48,20.42,30.8Z"/><path class="cls-1" d="M77.63,40.9c.89-9-.32-14.87-2.91-19.72A7.82,7.82,0,0,1,72.14,26S60.5,33,58.8,37.26,55.68,49.68,62,51.73C70.36,54.48,76.74,49.87,77.63,40.9Z"/><path class="cls-1" d="M57.51,31.44c3-4.69,4.93-6.54,1.69-13.66S52.74,3.72,51,.65c-.49,4-.65,8.73-4.2,9S41.1,17.3,41.42,23s1.13,11.64,5.17,12S54.52,36.13,57.51,31.44Z"/><path class="cls-1" d="M10.8,60.89s9.86-5.17,11.31-8.57,3.07-12.61,8.09-13.25,18.1-.33,19.07,3.23,6,17.14,9.86,17.46,6.51,7.41,6,10.35c-1,5.65-8.76,12.93-27.19,12.28-9.45-.33-19.77-3.54-23.24-7.43C9.34,69,7.57,62.67,10.8,60.89Z"/></g></g></svg>