<svg xmlns="http://www.w3.org/2000/svg" viewBox="0 0 124.13 102.74"><title>dog</title><g id="Layer_2" data-name="Layer 2"><g id="Layer_1-2" data-name="Layer 1"><circle cx="37.19" cy="52.86" r="5.75"/><circle cx="86.94" cy="52.86" r="5.75"/><path d="M119.35,21.76l-17-17a16.34,16.34,0,0,0-23.1,0,16.92,16.92,0,0,0-2.15,2.66A37.93,37.93,0,0,0,47,7.44,16.34,16.34,0,0,0,21.75,4.78l-17,17a16.32,16.32,0,0,0,9.39,27.72A45.28,45.28,0,0,0,13.33,58c0,18.54,12.64,30,35.92,32.9a12.86,12.86,0,0,0,25.64,0C98.16,88,110.8,76.53,110.8,58a46.1,46.1,0,0,0-.83-8.51,16.32,16.32,0,0,0,9.38-27.72ZM9,26,26,9A10.32,10.32,0,0,1,40.61,9a10.34,10.34,0,0,1,0,14.61l-17,17A10.33,10.33,0,0,1,9,26Zm53,70.73a6.87,6.87,0,0,1-6.68-5.28c2.15.13,4.37.2,6.68.2s4.53-.07,6.68-.2A6.87,6.87,0,0,1,62.07,96.73Zm3.08-11.12V73.91a6.2,6.2,0,0,0,4.25-5.59c0-3.41-3.28-6.17-7.33-6.17s-7.34,2.76-7.34,6.17A6.25,6.25,0,0,0,59.15,74V85.61C40.33,85.13,19.33,79.72,19.33,58a40.12,40.12,0,0,1,1.05-8.87,16.21,16.21,0,0,0,7.5-4.27l17-17A16.34,16.34,0,0,0,49.29,13a31.52,31.52,0,0,1,25.55,0,16.6,16.6,0,0,0-.34,3.31,16.22,16.22,0,0,0,4.78,11.55l17,17a16.3,16.3,0,0,0,7.51,4.27,40.1,40.1,0,0,1,1,8.87C104.8,79.66,83.93,85.1,65.15,85.61Zm50-45a10.28,10.28,0,0,1-7.31,3h0a10.26,10.26,0,0,1-7.3-3l-17-17A10.33,10.33,0,1,1,98.14,9l17,17A10.34,10.34,0,0,1,115.11,40.61Z"/></g></g></svg>