<svg xmlns="http://www.w3.org/2000/svg" viewBox="0 0 87.53 118.71"><defs><style>.cls-1{fill:#9ccc65;}</style></defs><title>horse-left</title><g id="Layer_2" data-name="Layer 2"><g id="Layer_1-2" data-name="Layer 1"><path class="cls-1" d="M19.53,99.09A9,9,0,0,0,25,87.62h0l-.06-.16h0l-.2-.61h0c-.19-.55-.46-1.39-.79-2.46h0c-.66-2.15-1.55-5.25-2.44-9h0A118,118,0,0,1,18,48.87h0c0-6.76.94-13.14,3-18h0c2.12-4.86,4.9-8.13,9.61-10.41h0C33.75,19,38,18,44,18h0a31.88,31.88,0,0,1,13.29,2.43h0a17.4,17.4,0,0,1,7.07,5.7h0c3.53,4.71,5.28,12.38,5.25,21h0c.07,17.17-6.62,36.54-7.36,38.42h0l-.06.16h0a9,9,0,0,0,5.23,11.57h0A9,9,0,0,0,79,92h0a139.56,139.56,0,0,0,4.3-14.12h0A128.9,128.9,0,0,0,87.53,47.1h0c0-8.07-1.06-16.41-4.45-24.18h0A36.26,36.26,0,0,0,64.7,4h0A49.72,49.72,0,0,0,44,0h0A48.9,48.9,0,0,0,22.89,4.27h0A36.23,36.23,0,0,0,8.67,16.21h0C1.8,26.07,0,37.81,0,48.87H0c.07,22.8,7.93,44.29,8.06,44.8h0a9,9,0,0,0,8.45,6h0a8.9,8.9,0,0,0,3-.53Z"/><path class="cls-1" d="M30.82,105.74s8.79,6.5,19.65,2.46S39,135.5,30.82,105.74Z"/></g></g></svg>