<svg xmlns="http://www.w3.org/2000/svg" viewBox="0 0 87.53 118.71"><defs><style>.cls-1{fill:#9ccc65;}</style></defs><title>horse-right</title><g id="Layer_2" data-name="Layer 2"><g id="Layer_1-2" data-name="Layer 1"><path class="cls-1" d="M68,99.09a9,9,0,0,1-5.42-11.47h0l0-.16h0c.05-.13.12-.33.21-.61h0c.18-.55.46-1.39.79-2.46h0c.66-2.14,1.55-5.25,2.44-9h0a118.58,118.58,0,0,0,3.52-26.56h0c0-6.76-.94-13.14-3-18h0C64.45,26.05,61.68,22.78,57,20.5h0C53.78,19,49.48,18,43.55,18h0c-5.86,0-10.13,1-13.28,2.43h0a17.5,17.5,0,0,0-7.08,5.7h0c-3.53,4.71-5.28,12.38-5.24,21h0c-.07,17.17,6.61,36.53,7.36,38.42h0l.06.16h0a9,9,0,0,1-5.23,11.57h0A9,9,0,0,1,8.57,92h0a146,146,0,0,1-4.3-14.12h0A128.93,128.93,0,0,1,0,47.1H0C0,39,1.06,30.69,4.45,22.92h0A36.19,36.19,0,0,1,22.83,4h0A49.68,49.68,0,0,1,43.55,0h0A48.84,48.84,0,0,1,64.63,4.27h0A36.09,36.09,0,0,1,78.85,16.21h0c6.87,9.86,8.63,21.6,8.68,32.66h0c-.08,22.8-7.94,44.29-8.06,44.8h0a9,9,0,0,1-8.45,6h0a8.92,8.92,0,0,1-3-.53Z"/><path class="cls-1" d="M56.71,105.74s-8.8,6.5-19.66,2.46S48.54,135.5,56.71,105.74Z"/></g></g></svg>