<svg xmlns="http://www.w3.org/2000/svg" viewBox="0 0 126.48 98.63"><title>pig</title><g id="Layer_2" data-name="Layer 2"><g id="Layer_1-2" data-name="Layer 1"><path d="M126.48,25.86A18.11,18.11,0,0,0,121.22,13L113.71,5.4A18.15,18.15,0,0,0,85.07,9.06,46.41,46.41,0,0,0,63.23,3.34,46.44,46.44,0,0,0,41.39,9.06a18.38,18.38,0,0,0-2.93-3.8,18.18,18.18,0,0,0-25.71.13L5.25,13a18.2,18.2,0,0,0,.14,25.71A17.88,17.88,0,0,0,12.48,43a42.73,42.73,0,0,0-2.41,13.66c0,17.21,12.32,29.67,33.86,34.3a28.17,28.17,0,0,0,38.6,0c21.54-4.63,33.87-17.09,33.87-34.3A42.9,42.9,0,0,0,114,43a18.19,18.19,0,0,0,12.49-17.17ZM9.51,17.2,17,9.61A12.18,12.18,0,0,1,34.34,26.75l-7.51,7.59A12.18,12.18,0,0,1,9.51,17.2ZM80.44,85.28a3,3,0,0,0-1.57.88,22.11,22.11,0,0,1-31.27,0A3.05,3.05,0,0,0,46,85.28c-11.18-2.26-29.95-9-29.95-28.6a38.3,38.3,0,0,1,2.36-12.74A18.1,18.1,0,0,0,31.1,38.56L38.6,31a18,18,0,0,0,5.26-12.88,19.21,19.21,0,0,0-.35-3.49A41.29,41.29,0,0,1,63.23,9.34,41.3,41.3,0,0,1,83,14.6a18.36,18.36,0,0,0-.35,3.49A18,18,0,0,0,87.87,31l7.5,7.59A18.1,18.1,0,0,0,108,43.94a38.3,38.3,0,0,1,2.36,12.74C110.4,76.3,91.63,83,80.44,85.28Zm36.42-50.85a12.19,12.19,0,0,1-17.23-.09l-7.5-7.59A12.18,12.18,0,0,1,109.45,9.61L117,17.2a12.17,12.17,0,0,1-.09,17.23Z"/><path d="M63.23,44.8c-12.89,0-23.38,9-23.38,20.1S50.34,85,63.23,85s23.38-9,23.38-20.1S76.13,44.8,63.23,44.8Zm0,34.2c-9.58,0-17.38-6.33-17.38-14.1s7.8-14.1,17.38-14.1,17.38,6.33,17.38,14.1S72.82,79,63.23,79Z"/><circle cx="30.31" cy="51.2" r="6.29"/><circle cx="96.15" cy="51.2" r="6.29"/><rect x="52.86" y="60.3" width="6" height="11"/><rect x="67.61" y="60.3" width="6" height="11"/></g></g></svg>