<svg xmlns="http://www.w3.org/2000/svg" viewBox="0 0 99.14 113.7"><title>rabbit</title><g id="Layer_2" data-name="Layer 2"><g id="Layer_1-2" data-name="Layer 1"><path d="M96.37,7.49A16.66,16.66,0,0,0,82.45,0,16.72,16.72,0,0,0,66.13,13.39L62.61,32.74a56.33,56.33,0,0,0-26.08,0L33,13.33A16.73,16.73,0,0,0,16.68,0a16.42,16.42,0,0,0-3.35.34A16.69,16.69,0,0,0,.34,20a2.23,2.23,0,0,0,.13.44L10.75,48.27C4.75,56.14,1.57,71,1.57,79.45c0,21.13,18.39,34.25,48,34.25s48-13.12,48-34.25c0-8.41-3.18-23.31-9.18-31.18L98.67,20.45A3.66,3.66,0,0,0,98.8,20,16.53,16.53,0,0,0,96.37,7.49ZM93,18.6,82.16,47.82a3,3,0,0,0,.61,3.08c5,5.45,8.79,19.57,8.79,28.55,0,20.83-21.69,28.25-42,28.25s-42-7.42-42-28.25c0-9,3.77-23.1,8.8-28.55A3,3,0,0,0,17,47.82L6.17,18.6A10.69,10.69,0,0,1,14.53,6.22,10.39,10.39,0,0,1,16.68,6,10.68,10.68,0,0,1,27.1,14.47L31.21,37a3,3,0,0,0,1.39,2,3.05,3.05,0,0,0,2.45.3,49.66,49.66,0,0,1,29,0,3,3,0,0,0,2.44-.3,3,3,0,0,0,1.4-2L72,14.53A10.7,10.7,0,0,1,82.45,6a10.7,10.7,0,0,1,8.92,4.79A10.61,10.61,0,0,1,93,18.6Z"/><circle cx="22.57" cy="75.83" r="5.63"/><circle cx="76.57" cy="75.83" r="5.63"/><path d="M62.29,85.33a3,3,0,0,0-3,3,3.37,3.37,0,0,1-6.6.94,3,3,0,0,0-1-5.82H47.44a3,3,0,0,0-1,5.82,3.37,3.37,0,0,1-6.6-.94,3,3,0,0,0-6,0,9.36,9.36,0,0,0,15.72,6.88,9.37,9.37,0,0,0,15.73-6.88A3,3,0,0,0,62.29,85.33Z"/></g></g></svg>