<svg xmlns="http://www.w3.org/2000/svg" viewBox="0 0 150 150"><defs><style>.cls-1{fill:none;}.cls-2{fill:#fff;}</style></defs><title>white-cat</title><g id="Layer_2" data-name="Layer 2"><g id="Layer_1-2" data-name="Layer 1"><circle class="cls-1" cx="75" cy="75" r="75"/><path class="cls-2" d="M89.58,88.24a3,3,0,0,0-3,3,4.27,4.27,0,0,1-8.38,1.17,3,3,0,0,0-1.12-5.78H72.92a3,3,0,0,0-1.12,5.78,4.27,4.27,0,0,1-8.38-1.17,3,3,0,0,0-6,0,10.3,10.3,0,0,0,7.5,9.89v.29a10.08,10.08,0,1,0,20.16,0v-.29a10.3,10.3,0,0,0,7.5-9.89A3,3,0,0,0,89.58,88.24ZM75,105.5a4.08,4.08,0,0,1-4.08-4.08V101A10.41,10.41,0,0,0,75,98.47,10.34,10.34,0,0,0,79.08,101v.42A4.08,4.08,0,0,1,75,105.5Z"/><circle class="cls-2" cx="51.56" cy="73.63" r="5.75"/><circle class="cls-2" cx="98.44" cy="73.63" r="5.75"/><path class="cls-2" d="M125.83,84.89l-2-54.66a3,3,0,0,0-4.55-2.47L94.83,42.47H54.61L30.74,27.78a3,3,0,0,0-3-.09,3,3,0,0,0-1.59,2.53l-2,54.67V85c0,23.59,19,37.67,50.83,37.67S125.83,108.59,125.83,85ZM75,116.67c-13.47,0-44.79-3.08-44.83-31.61L32,35.59,52.19,48a3,3,0,0,0,1.57.45h41.9A3,3,0,0,0,97.2,48L118,35.53l1.81,49.53C119.79,113.59,88.47,116.67,75,116.67Z"/></g></g></svg>