<svg xmlns="http://www.w3.org/2000/svg" viewBox="0 0 150 150"><defs><style>.cls-1{fill:none;}.cls-2{fill:#fff;}</style></defs><title>white-pig</title><g id="Layer_2" data-name="Layer 2"><g id="Layer_1-2" data-name="Layer 1"><circle class="cls-1" cx="75" cy="75" r="75"/><path class="cls-2" d="M138.24,51.55A18.07,18.07,0,0,0,133,38.66l-7.5-7.58a18.18,18.18,0,0,0-25.72-.14,18.38,18.38,0,0,0-2.93,3.8A46.38,46.38,0,0,0,75,29a46.44,46.44,0,0,0-21.84,5.72,18.33,18.33,0,0,0-2.92-3.8,18.17,18.17,0,0,0-25.71.14L17,38.66a18.17,18.17,0,0,0,7.23,30.05,42.68,42.68,0,0,0-2.41,13.66c0,17.2,12.33,29.66,33.86,34.29a28.14,28.14,0,0,0,38.6,0c21.54-4.63,33.87-17.09,33.87-34.29a42.68,42.68,0,0,0-2.41-13.66,18.16,18.16,0,0,0,12.49-17.16Zm-117-8.67,7.51-7.58A12.18,12.18,0,0,1,46.1,52.44L38.59,60A12.18,12.18,0,0,1,21.27,42.88ZM92.21,111a2.92,2.92,0,0,0-1.58.87,22.1,22.1,0,0,1-31.27,0,2.93,2.93,0,0,0-1.57-.87c-11.19-2.27-30-9-30-28.6a38.36,38.36,0,0,1,2.36-12.75,18,18,0,0,0,12.67-5.38l7.5-7.58a18.05,18.05,0,0,0,5.26-12.89,18.25,18.25,0,0,0-.35-3.48A41.19,41.19,0,0,1,75,35a41.18,41.18,0,0,1,19.72,5.27,18.25,18.25,0,0,0-.35,3.48,18.05,18.05,0,0,0,5.26,12.89l7.5,7.58a18,18,0,0,0,12.67,5.38,38.36,38.36,0,0,1,2.36,12.75C122.16,102,103.39,108.7,92.21,111Zm36.41-50.86A12.18,12.18,0,0,1,111.4,60l-7.51-7.59A12.18,12.18,0,1,1,121.21,35.3l7.51,7.58a12.18,12.18,0,0,1-.1,17.23Z"/><path class="cls-2" d="M75,70.49c-12.89,0-23.37,9-23.37,20.09S62.1,110.68,75,110.68s23.39-9,23.39-20.1S87.89,70.49,75,70.49Zm0,34.19c-9.58,0-17.37-6.32-17.37-14.1S65.41,76.49,75,76.49s17.39,6.32,17.39,14.09S84.58,104.68,75,104.68Z"/><circle class="cls-2" cx="42.08" cy="76.89" r="6.29"/><circle class="cls-2" cx="107.91" cy="76.89" r="6.29"/><rect class="cls-2" x="64.62" y="85.98" width="6" height="11"/><rect class="cls-2" x="79.37" y="85.98" width="6" height="11"/></g></g></svg>