<svg xmlns="http://www.w3.org/2000/svg" viewBox="0 0 150 150"><defs><style>.cls-1{fill:none;}.cls-2{fill:#fff;}</style></defs><title>white-dog</title><g id="Layer_2" data-name="Layer 2"><g id="Layer_1-2" data-name="Layer 1"><circle class="cls-1" cx="75" cy="75" r="75"/><circle class="cls-2" cx="50.13" cy="76.5" r="5.75"/><circle class="cls-2" cx="99.88" cy="76.5" r="5.75"/><path class="cls-2" d="M132.29,45.39l-17-17a16.32,16.32,0,0,0-23.1,0,16.41,16.41,0,0,0-2.15,2.65,37.93,37.93,0,0,0-30.13,0,16.33,16.33,0,0,0-25.25-2.65l-17,17a16.31,16.31,0,0,0,9.39,27.72,45.28,45.28,0,0,0-.84,8.51c0,18.54,12.64,30,35.91,32.9a12.87,12.87,0,0,0,25.65,0c23.27-2.94,35.91-14.36,35.91-32.9a45.28,45.28,0,0,0-.84-8.51,16.31,16.31,0,0,0,9.39-27.72ZM22,49.63l17-17A10.33,10.33,0,0,1,53.55,47.27l-17,17A10.33,10.33,0,1,1,22,49.63Zm53,70.74a6.88,6.88,0,0,1-6.68-5.29c2.16.13,4.38.2,6.68.2s4.53-.07,6.69-.2A6.89,6.89,0,0,1,75,120.37Zm3.09-11.13V97.54A6.2,6.2,0,0,0,82.34,92c0-3.41-3.29-6.17-7.34-6.17S67.67,88.54,67.67,92a6.24,6.24,0,0,0,4.42,5.66v11.63c-18.82-.48-39.82-5.89-39.82-27.62a40.1,40.1,0,0,1,1-8.87,16.37,16.37,0,0,0,7.51-4.26l17-17a16.32,16.32,0,0,0,4.43-14.86,31.47,31.47,0,0,1,25.55,0A16.44,16.44,0,0,0,87.44,40a16.22,16.22,0,0,0,4.78,11.55l17,17a16.32,16.32,0,0,0,7.51,4.26,40.1,40.1,0,0,1,1,8.87C117.74,103.29,96.87,108.73,78.09,109.24Zm50-45a10.3,10.3,0,0,1-7.31,3h0a10.28,10.28,0,0,1-7.31-3l-17-17a10.33,10.33,0,1,1,14.62-14.61l17,17A10.36,10.36,0,0,1,128.05,64.24Z"/></g></g></svg>