<svg xmlns="http://www.w3.org/2000/svg" viewBox="0 0 150 150"><defs><style>.cls-1{fill:none;}.cls-2{fill:#fff;}</style></defs><title>white-bird</title><g id="Layer_2" data-name="Layer 2"><g id="Layer_1-2" data-name="Layer 1"><circle class="cls-1" cx="75" cy="75" r="75"/><path class="cls-2" d="M115.31,112.08l-6-52.84a34.33,34.33,0,0,0-68.66,0l-6,52.84a3,3,0,0,0,3.19,3.33c.06,0,6.18-.41,11.68-.41a41.09,41.09,0,0,1,6.75.37c4.69.84,13.84,6.78,17,9a3,3,0,0,0,1.73.56,3,3,0,0,0,1.74-.56c3-2.15,11.9-7.94,16.49-8.83a45.53,45.53,0,0,1,8-.45c5.36,0,10.92.33,11,.33a3.07,3.07,0,0,0,2.36-.93A3,3,0,0,0,115.31,112.08Zm-14.13-3a51.67,51.67,0,0,0-9.08.56c-5.38,1-13.49,6.2-17.1,8.63-3.7-2.48-12.11-7.81-17.64-8.81a47.87,47.87,0,0,0-7.81-.46c-3,0-6.18.11-8.51.23l5.61-49.48c0-.11,0-.22,0-.33a28.34,28.34,0,1,1,56.67,0c0,.11,0,.22,0,.33l5.61,49.5C106.83,109.17,104,109.08,101.18,109.08Z"/><circle class="cls-2" cx="57" cy="57.75" r="5.38"/><circle class="cls-2" cx="93" cy="57.75" r="5.38"/><path class="cls-2" d="M75,100.16,88.39,65.49H61.61Zm0-16.65-4.64-12h9.28Z"/></g></g></svg>