<svg xmlns="http://www.w3.org/2000/svg" viewBox="0 0 150 150"><defs><style>.cls-1{fill:none;}.cls-2{fill:#fff;}</style></defs><title>white-rabbit</title><g id="Layer_2" data-name="Layer 2"><g id="Layer_1-2" data-name="Layer 1"><circle class="cls-1" cx="75" cy="75" r="75"/><path class="cls-2" d="M121.8,25.63a16.67,16.67,0,0,0-13.92-7.48A16.72,16.72,0,0,0,91.56,31.54L88,50.89a56.2,56.2,0,0,0-26.08,0L58.43,31.48A16.72,16.72,0,0,0,42.11,18.15a16.42,16.42,0,0,0-3.35.34,16.69,16.69,0,0,0-13,19.67,2.44,2.44,0,0,0,.13.44L36.18,66.42C30.18,74.29,27,89.19,27,97.6c0,21.13,18.39,34.25,48,34.25s48-13.12,48-34.25c0-8.41-3.18-23.31-9.18-31.18L124.1,38.6a3.66,3.66,0,0,0,.13-.44A16.56,16.56,0,0,0,121.8,25.63Zm-3.41,11.11L107.59,66A3,3,0,0,0,108.2,69c5,5.46,8.79,19.58,8.79,28.56,0,20.83-21.69,28.25-42,28.25S33,118.43,33,97.6c0-9,3.77-23.1,8.8-28.56A3,3,0,0,0,42.4,66L31.6,36.74A10.69,10.69,0,0,1,40,24.37a10.39,10.39,0,0,1,2.15-.22,10.68,10.68,0,0,1,10.42,8.47l4.11,22.57a3,3,0,0,0,1.39,2,3.05,3.05,0,0,0,2.45.3,49.66,49.66,0,0,1,29,0,3,3,0,0,0,2.44-.3,3.06,3.06,0,0,0,1.4-2l4.09-22.51a10.7,10.7,0,0,1,10.43-8.53,10.7,10.7,0,0,1,8.92,4.79A10.6,10.6,0,0,1,118.39,36.74Z"/><circle class="cls-2" cx="48" cy="93.98" r="5.63"/><circle class="cls-2" cx="102" cy="93.98" r="5.63"/><path class="cls-2" d="M87.72,103.48a3,3,0,0,0-3,3,3.37,3.37,0,0,1-6.6.94,3,3,0,0,0-1-5.82H72.87a3,3,0,0,0-1,5.82,3.37,3.37,0,0,1-6.6-.94,3,3,0,1,0-6,0A9.36,9.36,0,0,0,75,113.36a9.37,9.37,0,0,0,15.73-6.88A3,3,0,0,0,87.72,103.48Z"/></g></g></svg>